<svg width="58" height="65" viewBox="0 0 58 65" fill="none" xmlns="http://www.w3.org/2000/svg">
<path d="M52.5117 65C51.6862 64.9994 50.8716 64.8349 50.1285 64.5183C49.385 64.2017 48.7322 63.7412 48.2184 63.1713C46.6287 61.6569 34.3423 51.0099 26.8135 44.5186C26.2924 44.0755 25.8759 43.5459 25.5878 42.9601C25.2998 42.3745 25.1459 41.7442 25.1351 41.1058C25.1243 40.4674 25.2568 39.8334 25.5249 39.2403C25.793 38.6471 26.1915 38.1068 26.6973 37.6501C27.2031 37.1936 27.8063 36.8298 28.4722 36.5796C29.1381 36.3295 29.8535 36.1983 30.5771 36.1931C31.3008 36.1879 32.0185 36.3092 32.6888 36.5497C33.3592 36.7906 33.9689 37.1458 34.483 37.5952C34.5367 37.6417 39.959 42.3173 45.3408 46.988L47.0271 48.452V25.716C47.0271 16.8742 38.9404 9.68076 29 9.68076C19.0596 9.68076 10.973 16.8742 10.973 25.716V60.1592C10.973 61.443 10.3949 62.6742 9.36601 63.5819C8.3371 64.4896 6.94158 64.9994 5.48647 64.9994C4.03136 64.9994 2.63587 64.4896 1.60695 63.5819C0.578039 62.6742 0 61.443 0 60.1592V25.716C0 11.536 13.0093 0 29 0C44.9905 0 58 11.536 58 25.716V60.1592C57.9993 61.443 57.421 62.6742 56.3918 63.5822C55.3626 64.4899 53.967 64.9997 52.5117 65ZM47.5238 62.1705L47.5261 62.1748L47.5238 62.1705Z" fill="url(#paint0_linear_123_162)"/>
<path d="M29.0003 30.3685C32.4634 30.3685 35.2706 27.8919 35.2706 24.8366C35.2706 21.7814 32.4634 19.3047 29.0003 19.3047C25.5373 19.3047 22.73 21.7814 22.73 24.8366C22.73 27.8919 25.5373 30.3685 29.0003 30.3685Z" fill="url(#paint1_linear_123_162)"/>
<defs>
<linearGradient id="paint0_linear_123_162" x1="29" y1="65.78" x2="29" y2="0.194997" gradientUnits="userSpaceOnUse">
<stop stop-color="#00C0F4"/>
<stop offset="1" stop-color="#12ECA0"/>
</linearGradient>
<linearGradient id="paint1_linear_123_162" x1="29.0003" y1="65.7621" x2="29.0003" y2="0.186249" gradientUnits="userSpaceOnUse">
<stop stop-color="#00C0F4"/>
<stop offset="1" stop-color="#12ECA0"/>
</linearGradient>
</defs>
</svg>
