<svg width="1440" height="283" viewBox="0 0 1440 283" fill="none" xmlns="http://www.w3.org/2000/svg">
<path fill-rule="evenodd" clip-rule="evenodd" d="M0 251.717H27C53 251.717 107 251.717 160 246.625C213 240.805 267 230.62 320 209.522C373 188.424 427 157.141 480 141.864C533 125.859 587 125.859 640 130.951C693 136.044 747 146.956 800 157.141C853 168.054 907 178.239 960 152.049C1013 125.859 1067 63.2931 1120 78.5707C1173 94.5758 1227 188.424 1280 188.424C1333 188.424 1387 94.5758 1413 47.2879L1440 0V283H1413C1387 283 1333 283 1280 283C1227 283 1173 283 1120 283C1067 283 1013 283 960 283C907 283 853 283 800 283C747 283 693 283 640 283C587 283 533 283 480 283C427 283 373 283 320 283C267 283 213 283 160 283C107 283 53 283 27 283H0V251.717Z" fill="white"/>
</svg>
